<mxfile host="app.diagrams.net" modified="2020-09-15T06:46:52.965Z" agent="5.0 (Windows)" etag="hXPsBZ-VmK6PsTxqU5mh" version="13.7.1" type="github">
  <diagram id="VyclkDzrTjf0wuCmbSBq" name="Page-1">
    <mxGraphModel dx="910" dy="487" grid="1" gridSize="10" guides="1" tooltips="1" connect="1" arrows="1" fold="1" page="1" pageScale="1" pageWidth="1169" pageHeight="827" math="0" shadow="0">
      <root>
        <mxCell id="0" />
        <mxCell id="1" parent="0" />
        <mxCell id="BOvM9oNE_HO5xxUdQuAv-1" value="Trade Fairs and Exhibitions - Preparatory Activities" style="swimlane;" vertex="1" parent="1">
          <mxGeometry x="10" y="20" width="1110" height="780" as="geometry" />
        </mxCell>
      </root>
    </mxGraphModel>
  </diagram>
</mxfile>
